<svg width="1024" height="1024" viewBox="0 0 1024 1024" fill="none" xmlns="http://www.w3.org/2000/svg">
<rect width="1024" height="1024" fill="white"/>
<g opacity="0.15">
<path d="M500.378 835.792H468.394V910.15H500.378V835.792Z" stroke="#464646" stroke-width="2.172" stroke-linecap="round" stroke-linejoin="round"/>
</g>
<g opacity="0.15">
<path d="M479.724 642.625H457.349V801.982H479.724V642.625Z" stroke="#464646" stroke-width="2.172" stroke-linecap="round" stroke-linejoin="round"/>
</g>
<g opacity="0.15">
<path d="M468.536 697.182C472.093 697.182 474.99 694.474 474.99 691.12C474.99 687.766 472.093 685.058 468.536 685.058C464.965 685.058 462.082 687.766 462.082 691.12C462.082 694.474 464.965 697.182 468.536 697.182Z" stroke="#464646" stroke-width="2.172" stroke-linecap="round" stroke-linejoin="round"/>
</g>
<g opacity="0.15">
<path d="M468.536 740.557C472.093 740.557 474.99 737.836 474.99 734.495C474.99 731.141 472.093 728.433 468.536 728.433C464.965 728.433 462.082 731.141 462.082 734.495C462.082 737.836 464.965 740.557 468.536 740.557Z" stroke="#464646" stroke-width="2.172" stroke-linecap="round" stroke-linejoin="round"/>
</g>
<path d="M400.981 866.371L406.718 904.897C407.579 910.689 413.316 915 420.201 915H604.077C610.962 915 616.699 910.689 617.56 904.897L623.297 866.371H400.981Z" fill="#D6D6D4"/>
<path d="M599.918 915L613.257 911.767L623.01 866.371H400.981L403.132 881.189H586.435C586.579 881.189 586.579 881.189 586.722 881.189C612.97 881.189 599.918 915 599.918 915Z" fill="#BABABA"/>
<path d="M645.241 853.304L695.442 476.802H328.549L378.749 853.304C379.753 860.713 386.638 866.37 394.814 866.37H629.321C637.496 866.37 644.237 860.847 645.241 853.304Z" fill="#5DB172"/>
<g opacity="0.34">
<path d="M503.242 766.42C501.951 769.249 502.238 771 502.669 771.404C502.669 771.404 502.812 771.404 502.812 771.539C502.955 771.404 503.242 771 503.529 770.327C503.959 768.98 503.673 767.498 503.242 766.42ZM501.818 785.01C498.232 785.01 495.507 783.258 494.503 782.585C491.348 780.16 489.483 776.119 489.34 771.27C489.053 765.343 491.348 759.55 495.364 755.913C496.511 754.97 499.81 751.872 504.113 751.872C504.543 751.872 504.974 751.872 505.404 752.007C508.272 752.411 510.854 754.162 512.862 757.125C516.018 761.571 517.022 767.632 515.731 772.751C514.153 778.678 508.846 785.01 502.105 785.144L501.818 785.01Z" fill="#60A06B"/>
</g>
<g opacity="0.34">
<path d="M532.651 744.731C533.368 743.114 534.372 741.633 535.376 740.555C535.232 740.555 535.232 740.555 535.089 740.555C534.946 740.555 534.659 740.555 534.515 740.555C534.515 740.555 533.081 740.824 531.647 742.306C531.36 742.576 530.93 743.114 530.499 744.057C530.786 744.057 532.22 744.596 532.651 744.731ZM546.707 749.176C548.428 749.446 549.862 749.715 551.01 749.715C551.44 749.715 551.87 749.715 552.301 749.58L550.436 748.637C549.862 748.368 549.289 748.233 548.858 748.233C548.715 748.233 548.571 748.233 548.428 748.233C548.285 748.233 547.424 748.503 546.707 749.176ZM528.203 755.777C527.629 762.512 527.773 768.978 527.773 768.978C527.916 772.076 527.916 774.905 528.06 777.464C528.06 778.542 528.203 779.485 528.203 780.428C528.633 775.444 529.064 768.978 529.494 760.357C529.494 758.875 529.637 757.528 529.781 756.181C529.207 756.046 528.777 755.911 528.203 755.777ZM518.453 801.711C516.588 801.711 514.724 801.173 513.289 800.23C510.134 798.209 510.277 795.515 511.138 785.681C511.711 779.485 512.572 769.921 513.289 755.103C513.289 754.295 513.433 753.621 513.433 752.813C513.289 752.813 513.289 752.813 513.146 752.813C512.859 752.813 512.429 752.813 512.142 752.813C510.994 752.948 509.847 752.948 508.699 752.948C507.409 752.948 506.261 753.083 505.114 753.217C504.683 753.217 504.253 753.352 503.823 753.352C502.962 753.487 502.245 753.487 501.671 753.487C500.381 753.487 499.377 753.083 498.516 752.274C495.504 749.446 498.803 743.384 501.241 741.094C503.249 739.343 505.974 738.4 509.273 738.4C511.138 738.4 513.289 738.669 515.871 739.208C517.449 734.897 519.744 731.799 522.612 729.913C523.76 729.105 526.915 727.084 531.074 727.084C531.648 727.084 532.222 727.084 532.796 727.219C533.656 727.354 536.381 727.758 538.676 729.779C540.828 731.799 541.401 734.493 541.401 736.379C542.549 735.975 543.696 735.706 545.131 735.706C545.704 735.706 546.135 735.706 546.708 735.84C547.569 735.975 550.007 736.244 552.015 738.265C555.314 741.363 554.453 745.809 554.31 746.617L553.736 748.907C554.167 748.772 554.597 748.503 554.884 748.233C555.744 747.425 556.318 746.213 556.461 744.461L556.892 738.939L564.207 745.404L564.494 745.809C565.784 748.233 564.924 751.331 561.912 754.834C559.76 757.393 555.601 758.606 549.29 758.606C547.425 758.606 545.274 758.471 542.979 758.201C542.119 764.802 542.262 772.076 542.262 772.076C542.405 774.77 542.405 777.33 542.549 779.485C542.979 791.474 543.123 796.323 539.107 799.152C537.672 800.095 535.808 800.634 533.943 800.634C532.222 800.634 530.644 800.23 529.21 799.287C527.776 798.344 527.058 797.401 526.772 795.515C526.198 797.131 525.194 798.344 523.76 799.421C522.612 801.038 520.604 801.711 518.453 801.711Z" fill="#60A06B"/>
</g>
<g opacity="0.34">
<path d="M558.182 765.61C557.751 765.745 557.321 766.014 556.747 766.418C557.321 766.149 557.751 765.88 558.182 765.61ZM550.868 788.375C547.569 788.375 544.701 787.433 542.836 785.681C540.111 783.122 539.107 778.407 540.398 773.019C541.689 767.092 545.848 759.144 553.45 756.181C554.167 755.911 556.749 754.969 559.761 754.969C562.486 754.969 564.781 755.777 566.646 757.124C570.231 759.953 570.805 764.802 569.801 768.17C568.797 771.672 566.072 773.962 562.916 775.444C563.203 775.848 563.633 776.387 563.633 777.33C563.92 779.35 562.773 782.583 560.335 784.873C558.183 787.028 554.597 788.375 550.868 788.375Z" fill="#60A06B"/>
</g>
<g opacity="0.34">
<path d="M573.955 788.916C570.656 788.916 567.357 787.838 565.492 785.817C562.767 783.123 561.907 778.813 562.911 773.694C564.345 767.228 568.648 761.705 573.811 759.685C575.676 759.011 577.827 758.607 579.835 758.607C583.134 758.607 585.716 759.55 587.437 761.436C590.592 764.803 589.445 769.518 589.015 770.865C588.154 773.694 586.146 775.849 583.708 777.331C584.138 777.735 584.568 778.409 584.568 779.352C584.712 781.237 583.708 784.336 581.413 786.222C579.692 787.973 576.967 788.916 573.955 788.916Z" fill="#60A06B"/>
</g>
<g opacity="0.34">
<path d="M466.242 748.637C467.963 749.446 469.111 749.85 470.258 749.85C470.545 749.85 470.832 749.85 471.119 749.85C473.557 749.58 476.426 748.233 477.143 746.078C477.573 745 477.43 743.923 477.143 743.788C477.143 743.788 476.712 743.519 475.995 743.519C474.274 743.519 472.123 744.192 470.688 745L470.545 745.135C468.967 745.943 467.533 747.156 466.242 748.637ZM468.967 799.556C466.672 799.556 464.521 799.287 462.369 798.613C455.198 796.593 449.461 791.07 446.162 783.122C442.576 774.501 443.724 763.59 448.887 753.756C446.736 754.16 444.871 755.238 443.15 756.181C441.285 757.259 439.708 758.067 437.986 758.067C436.982 758.067 436.122 757.797 435.261 757.259C433.684 756.046 432.823 753.891 432.966 751.197C433.11 747.964 434.688 743.519 438.56 741.498C439.994 740.69 441.716 740.286 443.58 740.286C447.309 740.286 451.612 741.902 456.059 743.788C460.361 739.208 465.381 736.11 470.545 734.493C473.414 733.685 476.282 733.146 478.72 733.146C482.45 733.146 485.462 734.224 487.326 736.244C491.629 740.824 489.621 749.041 485.175 753.891C483.023 756.181 479.007 759.01 471.836 759.414C471.406 759.414 471.119 759.414 470.688 759.414C467.963 759.414 465.668 758.875 463.087 758.067C462.369 757.932 461.796 757.663 461.222 757.528C458.497 766.553 459.788 776.252 464.377 779.889C465.812 780.967 468.25 782.179 470.832 782.179C471.406 782.179 471.979 782.179 472.41 782.044C472.553 782.044 476.426 781.101 477.143 778.273C477.573 776.926 477.286 775.174 476.426 774.231C475.852 773.558 474.991 773.288 474.131 772.884C473.27 772.615 470.975 771.672 471.262 769.382C471.549 766.823 474.991 765.61 478.003 765.61C478.864 765.61 479.724 765.745 480.585 765.88C487.183 767.496 492.059 776.252 490.482 783.93C489.191 790.396 484.027 793.898 482.306 795.111C478.577 798.209 473.844 799.556 468.967 799.556Z" fill="#60A06B"/>
</g>
<path d="M328.549 476.802L332.422 506.437H637.64C649.257 506.437 658.294 516.001 656.859 526.912L625.018 836.735C623.727 848.589 614.261 858.288 601.782 860.443L565.925 866.505H616.986H629.177C637.353 866.505 644.237 860.982 645.241 853.438L695.442 476.937H328.549V476.802Z" fill="#60A06B"/>
<path d="M400.981 866.371L406.718 904.897C407.579 910.689 413.316 915 420.201 915H604.077C610.962 915 616.699 910.689 617.56 904.897L623.297 866.371H400.981Z" stroke="#464646" stroke-width="2.172" stroke-linecap="round" stroke-linejoin="round"/>
<path d="M645.241 853.304L695.442 476.802H328.549L378.749 853.304C379.753 860.713 386.638 866.37 394.814 866.37H629.321C637.496 866.37 644.237 860.847 645.241 853.304Z" stroke="#464646" stroke-width="2.172" stroke-linecap="round" stroke-linejoin="round"/>
<path d="M703.333 476.8C575.824 476.8 448.172 476.8 320.663 476.8C308.185 476.935 309.906 470.604 314.209 458.615C316.791 451.476 316.791 443.797 314.209 436.793C309.906 424.669 308.185 418.473 320.663 418.607C448.172 418.607 575.824 418.607 703.333 418.607C715.811 418.473 714.09 424.804 709.787 436.793C707.206 443.932 707.206 451.61 709.787 458.615C714.09 470.604 715.811 476.935 703.333 476.8Z" fill="#646464"/>
<path d="M709.786 436.659C712.511 428.846 714.233 423.458 711.794 420.629C711.221 422.381 710.503 424.401 709.786 426.556C707.922 431.675 707.491 437.198 708.209 442.586C708.639 440.566 709.069 438.68 709.786 436.659Z" fill="#7C7C7C"/>
<path d="M315.787 442.586C316.648 437.198 316.218 431.81 314.21 426.556C313.492 424.401 312.775 422.515 312.202 420.629C309.763 423.458 311.341 428.846 314.21 436.659C314.927 438.68 315.5 440.566 315.787 442.586Z" fill="#7C7C7C"/>
<path d="M711.801 464.409C710.366 465.891 707.785 466.699 703.338 466.699C575.83 466.699 448.177 466.699 320.668 466.699C316.222 466.699 313.64 466.025 312.206 464.409C309.768 472.626 310.342 476.802 320.668 476.802C448.177 476.802 575.83 476.802 703.338 476.802C713.665 476.936 714.239 472.626 711.801 464.409Z" fill="#7C7C7C"/>
<path d="M709.791 458.616C709.504 457.943 709.36 457.269 709.217 456.596C707.352 462.927 707.496 469.662 709.647 475.993C714.954 473.973 713.09 468.046 709.791 458.616Z" fill="#646464"/>
<path d="M316.222 450.002C317.656 449.463 323.25 436.397 331.856 436.397C459.365 436.397 567.941 436.397 695.45 436.397C705.777 436.397 707.641 456.064 709.219 456.603C709.219 456.468 709.793 436.801 709.793 436.666C714.095 424.543 715.817 418.346 703.338 418.481C575.973 418.481 448.464 418.481 321.099 418.481C308.19 418.211 309.911 424.543 314.214 436.666C314.357 436.936 316.079 449.867 316.222 450.002Z" fill="#646464"/>
<path d="M314.498 475.993C316.65 469.662 316.793 462.927 314.928 456.596C314.785 457.269 314.498 457.943 314.355 458.616C310.912 468.046 309.048 473.973 314.498 475.993Z" fill="#646464"/>
<path d="M703.333 476.8C575.824 476.8 448.172 476.8 320.663 476.8C308.185 476.935 309.906 470.604 314.209 458.615C316.791 451.476 316.791 443.797 314.209 436.793C309.906 424.669 308.185 418.473 320.663 418.607C448.172 418.607 575.824 418.607 703.333 418.607C715.811 418.473 714.09 424.804 709.787 436.793C707.206 443.932 707.206 451.61 709.787 458.615C714.09 470.604 715.811 476.935 703.333 476.8Z" stroke="#464646" stroke-width="2.172" stroke-linecap="round" stroke-linejoin="round"/>
<path d="M692.288 418.476H331.85L335.435 406.622C341.029 387.763 360.249 374.697 382.193 374.697H641.944C663.889 374.697 682.965 387.763 688.702 406.622L692.288 418.476Z" fill="#D6D6D4"/>
<path d="M692.288 418.476H331.85L335.435 406.622C341.029 387.763 360.249 374.697 382.193 374.697H641.944C663.889 374.697 682.965 387.763 688.702 406.622L692.288 418.476Z" fill="#D6D6D4"/>
<path d="M407.435 388.706L653.417 388.571C671.202 388.571 682.103 400.56 687.123 402.042C678.374 389.784 659.011 374.697 642.086 374.697H382.048C360.104 374.697 341.028 387.763 335.29 406.622L331.705 418.476H362.972C370.574 402.85 387.929 388.706 407.435 388.706Z" fill="white"/>
<path d="M692.288 418.476H331.85L335.435 406.622C341.029 387.763 360.249 374.697 382.193 374.697H641.944C663.889 374.697 682.965 387.763 688.702 406.622L692.288 418.476Z" stroke="#464646" stroke-width="2.172" stroke-linecap="round" stroke-linejoin="round"/>
<path d="M621.289 374.695H522.896V366.074C522.896 356.106 531.502 347.889 542.259 347.889H602.069C612.683 347.889 621.432 355.971 621.432 366.074V374.695H621.289Z" fill="#D6D6D4"/>
<path d="M621.289 374.695H522.896V366.074C522.896 356.106 531.502 347.889 542.259 347.889H602.069C612.683 347.889 621.432 355.971 621.432 366.074V374.695H621.289Z" fill="#D6D6D4"/>
<path d="M523.04 374.427C523.04 364.863 531.215 357.185 541.399 357.185H603.073C612.396 357.185 620.141 363.785 621.289 372.272V365.267C621.289 355.703 613.113 348.025 602.93 348.025H541.255C531.072 348.025 522.896 355.703 522.896 365.267V374.697H523.04V374.427Z" fill="white"/>
<path d="M500.382 690.985C485.179 690.985 457.64 680.882 448.891 653.806C440.285 631.714 444.015 605.716 458.501 586.184C469.115 571.905 483.601 563.823 498.231 563.823C502.677 563.823 507.124 564.631 511.426 566.113L511.57 566.247L511.713 566.382C514.725 567.999 516.446 569.885 517.02 572.174C517.881 576.081 515.156 579.718 511.57 584.298C504.398 593.593 494.645 606.255 504.255 629.828C515.442 657.039 515.442 682.902 508.558 689.099C507.124 690.311 504.255 690.985 500.382 690.985Z" fill="#60A06B"/>
<path d="M621.289 374.695H522.896V366.074C522.896 356.106 531.502 347.889 542.259 347.889H602.069C612.683 347.889 621.432 355.971 621.432 366.074V374.695H621.289Z" stroke="#464646" stroke-width="2.172" stroke-linecap="round" stroke-linejoin="round"/>
<path d="M539.82 690.579C534.226 690.579 529.063 688.559 525.477 685.056C522.465 681.958 520.887 678.052 521.174 673.876C521.891 663.099 518.019 652.862 514.29 642.894C510.847 633.868 507.549 625.247 507.549 616.357C507.405 583.488 530.928 573.116 533.796 572.038C535.661 570.961 537.812 570.422 540.107 570.422C549.43 570.422 560.904 579.043 569.223 592.379C574.817 601.27 591.311 633.195 569.653 669.835C561.765 683.036 551.008 690.579 539.82 690.579Z" fill="#60A06B"/>
<path d="M511.845 564.495C528.77 573.52 485.884 584.566 503.096 626.594C514.857 655.287 513.136 678.456 508.116 682.901C503.096 687.346 463.796 682.093 452.896 648.955C435.11 603.425 473.836 551.159 511.845 564.495Z" fill="#F6F9E4"/>
<path d="M536.521 570.428C536.521 570.428 511.708 579.588 511.851 612.456C511.851 630.776 526.911 649.23 525.477 670.11C524.473 684.658 551.007 694.357 568.649 664.587C599.486 612.052 553.589 560.19 536.521 570.428Z" fill="#F6F9E4"/>
<path d="M504.68 768.442C504.537 768.846 503.676 771.271 501.668 771.54C500.377 771.675 499.372 770.867 499.228 770.732C497.507 769.25 497.652 765.883 499.373 762.246C500.52 760.629 501.381 760.225 501.955 760.36C503.963 760.36 506.114 764.94 504.68 768.442ZM495.931 755.104C489.333 761.031 489.046 773.289 494.927 777.734C495.357 778.003 497.508 779.755 500.664 779.62C506.114 779.485 510.274 773.828 511.565 769.248C513.573 761.974 509.413 752.814 503.676 751.871C500.09 751.332 496.935 754.161 495.931 755.104Z" fill="#F6F9E4"/>
<path d="M513.434 795.375C510.422 793.489 513.004 789.178 514.725 752.538C515.155 742.436 517.45 733.276 523.044 729.639C524.191 728.965 527.347 726.81 531.219 727.349C532.08 727.483 533.945 727.753 535.379 729.234C538.104 731.794 537.243 735.7 537.1 735.97C536.239 735.566 534.662 734.892 532.654 735.161C532.654 735.161 530.359 735.566 528.207 737.721C522.757 743.244 523.331 766.413 523.331 766.413C523.904 785.676 524.908 792.411 520.892 795.105C519.028 796.587 515.729 796.722 513.434 795.375Z" fill="#F6F9E4"/>
<path d="M529.784 794.983C527.202 793.366 529.353 789.595 530.931 757.939C531.361 749.183 533.369 741.235 538.103 738.137C539.107 737.464 541.832 735.712 545.131 736.251C545.848 736.386 547.425 736.655 548.86 737.868C551.155 740.023 550.437 743.391 550.294 743.795C549.577 743.391 548.143 742.852 546.421 743.121C546.421 743.121 544.413 743.391 542.549 745.276C537.816 750.126 538.389 770.062 538.389 770.062C538.82 786.766 539.68 792.558 536.238 794.848C534.517 796.06 531.792 796.195 529.784 794.983Z" fill="#F6F9E4"/>
<path d="M553.88 777.198C552.59 777.467 550.868 777.467 549.578 776.659C546.566 774.638 547.57 767.499 551.299 763.323C551.872 762.784 555.171 759.282 558.183 760.225C559.044 760.494 560.191 761.302 560.191 762.245C560.335 764.535 555.315 767.095 550.868 767.364C548.43 767.499 546.422 766.96 545.275 766.556C543.984 768.307 544.127 769.385 544.271 769.789C545.131 772.348 551.299 772.214 552.159 772.079C552.733 772.079 563.49 771.405 565.498 764.535C566.215 761.976 565.785 758.339 563.203 756.184C559.474 753.22 553.737 755.241 553.02 755.645C542.836 759.416 538.247 775.851 543.41 780.7C546.422 783.529 553.45 783.125 556.892 780.026C559.187 777.871 559.761 774.504 559.044 774.099C558.614 774.099 557.179 776.524 553.88 777.198Z" fill="#F6F9E4"/>
<path d="M575.532 778.953C574.385 779.223 572.807 779.223 571.803 778.549C569.078 776.663 570.225 770.332 573.381 766.695C573.811 766.156 576.249 763.327 578.257 764.001C579.261 764.27 579.979 765.348 579.979 766.291C579.835 768.446 575.963 770.063 573.094 770.332C570.943 770.601 569.078 770.063 568.074 769.659C566.927 771.14 567.07 772.218 567.213 772.487C567.931 774.508 572.09 774.777 574.241 774.508C577.971 774.239 583.564 772.083 584.999 767.369C585.142 766.83 586.29 762.923 583.995 760.499C581.413 757.804 576.536 758.343 573.524 759.421C565.062 762.654 561.189 776.528 566.066 781.243C568.935 783.937 575.245 784.207 578.257 781.647C580.409 779.896 580.839 776.798 580.265 776.394C579.692 776.124 578.401 778.28 575.532 778.953Z" fill="#F6F9E4"/>
<path d="M558.186 742.177C558.043 743.928 557.469 746.083 555.748 747.7C545.851 756.59 511.715 731.67 502.105 740.56C499.954 742.446 498.233 746.757 499.38 747.969C499.954 748.508 500.958 748.239 503.539 747.969C505.834 747.7 508.273 747.834 510.567 747.565C516.305 747.026 525.054 750.259 534.09 752.145C536.385 752.549 554.457 756.051 558.76 750.933C559.333 750.259 562.059 746.892 560.911 744.736C559.907 743.793 559.047 742.985 558.186 742.177Z" fill="#F6F9E4"/>
<path d="M457.773 745.543C463.94 748.372 465.948 750.258 469.964 749.854C473.119 749.45 477.279 747.699 478.426 744.196C478.857 742.849 479.144 740.425 477.853 739.212C475.845 737.192 470.825 738.539 467.956 739.886C467.956 739.886 467.813 740.02 467.669 740.02C455.191 746.352 451.318 771.676 461.358 779.624C463.94 781.644 467.956 783.261 471.972 782.318C472.546 782.183 477.566 780.971 478.857 776.66C479.43 774.505 479 771.946 477.566 770.194C475.701 768.174 472.976 768.039 473.119 767.366C473.119 766.692 476.132 765.614 478.857 766.288C484.02 767.5 487.893 774.909 486.602 781.24C485.454 786.628 481.008 789.727 479.574 790.67C474.41 794.172 467.669 794.98 461.932 793.364C452.179 790.535 448.45 781.375 447.589 779.489C440.561 762.516 453.757 739.347 470.251 734.497C471.398 734.093 480.291 731.534 484.02 735.44C487.176 738.808 485.454 745.678 481.869 749.45C477.853 753.76 472.115 754.03 470.538 754.164C467.669 754.299 465.518 753.76 462.649 752.952C455.334 751.066 454.904 748.911 450.888 748.237C443.143 747.16 438.266 754.164 435.684 752.413C433.39 750.797 434.394 743.388 438.696 741.098C442.856 738.808 449.74 741.906 457.773 745.543Z" fill="#F6F9E4"/>
<path d="M610.106 192.173C602.896 198.36 595.823 203.792 589.881 214.53C587.299 219.245 579.697 232.985 581.992 249.554C585.004 271.376 602.503 277.034 604.224 296.701C604.941 305.591 602.359 316.368 592.749 329.03" stroke="#464646" stroke-width="2.172" stroke-linecap="round" stroke-linejoin="round"/>
<path d="M658.723 110C667.472 144.08 661.161 165.095 653.703 178.026C641.488 199.158 620.285 208.707 614.783 227.536" stroke="#464646" stroke-width="2.172" stroke-linecap="round" stroke-linejoin="round"/>
</svg>
