<svg width="293" height="70" viewBox="0 0 293 70" fill="none" xmlns="http://www.w3.org/2000/svg">
<path d="M0.28125 0.125H15.2812L35.4375 49.4375H36.2812L56.4375 0.125H71.4375V68H59.7188V21.3125H59.0625L40.2188 67.8125H31.5L12.6562 21.125H12.0938V68H0.28125V0.125ZM105.656 69.0312C90.4688 69.0312 81.2812 58.1562 81.2812 42.7812C81.2812 27.2188 90.75 16.4375 105.656 16.4375C118.031 16.4375 126.656 23.6562 127.5 34.625H116.062C115.125 29.75 111.562 26 105.75 26C98.3438 26 93.375 32.2812 93.375 42.5C93.375 53 98.25 59.2812 105.75 59.2812C111.094 59.2812 115.031 56.1875 116.062 50.6562H127.5C126.562 61.4375 118.406 69.0312 105.656 69.0312ZM137.062 68V0.125H162.562C178.125 0.125 186.469 9.59375 186.469 22.625C186.469 35.6562 178.031 45.0312 162.375 45.0312H149.25V68H137.062ZM149.25 35H160.688C169.875 35 174 29.8438 174 22.625C174 15.3125 169.875 10.3438 160.688 10.3438H149.25V35ZM217.219 69.0312C202.406 69.0312 192.844 58.5312 192.844 42.7812C192.844 26.9375 202.406 16.4375 217.219 16.4375C232.125 16.4375 241.594 26.9375 241.594 42.7812C241.594 58.5312 232.125 69.0312 217.219 69.0312ZM217.312 59.4688C225.469 59.4688 229.5 52.0625 229.5 42.6875C229.5 33.4062 225.469 25.9062 217.312 25.9062C208.969 25.9062 204.938 33.4062 204.938 42.6875C204.938 52.0625 208.969 59.4688 217.312 59.4688ZM279.75 31.625C279 27.7812 275.812 25.3438 270.75 25.3438C265.594 25.3438 261.844 27.875 261.938 31.3438C261.844 33.9688 264 35.9375 269.156 37.1562L277.781 38.9375C287.438 41.0938 292.031 45.5 292.125 52.8125C292.031 62.375 283.688 69.0312 270.375 69.0312C257.438 69.0312 249.75 63.2188 248.531 53.4688H260.719C261.469 57.7812 264.844 59.9375 270.375 59.9375C276.094 59.9375 279.938 57.5938 279.938 53.8438C279.938 50.9375 277.594 49.0625 272.531 47.9375L264.375 46.1562C254.906 44.2812 250.031 39.3125 250.031 32C250.031 22.625 258.094 16.4375 270.562 16.4375C282.75 16.4375 290.25 22.3438 291.094 31.625H279.75Z" fill="url(#paint0_linear_1_423)"/>
<defs>
<linearGradient id="paint0_linear_1_423" x1="6.20646" y1="12.5344" x2="310.544" y2="35.7875" gradientUnits="userSpaceOnUse">
<stop stop-color="#2CC56F"/>
<stop offset="1" stop-color="#BEDC7C"/>
</linearGradient>
</defs>
</svg>
